<svg width="100" height="101" viewBox="0 0 100 101" fill="none" xmlns="http://www.w3.org/2000/svg">
<rect y="0.5" width="100" height="100" rx="30" fill="#56CCF2"/>
<path d="M50 58.833V65.4997" stroke="white" stroke-width="2" stroke-linecap="round" stroke-linejoin="round"/>
<path d="M43.75 66.75H56.25" stroke="white" stroke-width="2" stroke-linecap="round" stroke-linejoin="round"/>
<path d="M47.699 58.7742L47.5851 59.7677L47.699 58.7742ZM40.4091 51.527L41.3923 51.3448V51.3448L40.4091 51.527ZM40.8526 53.5585L41.8011 53.2415L40.8526 53.5585ZM59.5913 51.527L60.5745 51.7093L59.5913 51.527ZM59.1477 53.5585L58.1993 53.2415L59.1477 53.5585ZM52.3013 58.7742L52.4152 59.7677L52.3013 58.7742ZM55.9567 32.5167L56.2322 31.5553L55.9567 32.5167ZM61.0127 43.8576L60.0294 43.6754L61.0127 43.8576ZM61.6084 38.5163L62.5957 38.3579L61.6084 38.5163ZM44.0436 32.5167L43.7681 31.5553L44.0436 32.5167ZM38.9877 43.8576L38.0044 44.0398L38.9877 43.8576ZM38.3919 38.5163L37.4046 38.3579L38.3919 38.5163ZM60.0294 43.6754L58.608 51.3448L60.5745 51.7093L61.9959 44.0398L60.0294 43.6754ZM41.3923 51.3448L39.9709 43.6754L38.0044 44.0398L39.4258 51.7093L41.3923 51.3448ZM50.0002 57.8337C48.7857 57.8337 48.261 57.8321 47.813 57.7807L47.5851 59.7677C48.1748 59.8353 48.8383 59.8337 50.0002 59.8337V57.8337ZM39.4258 51.7093C39.6153 52.732 39.7261 53.3426 39.9042 53.8755L41.8011 53.2415C41.678 52.8734 41.5935 52.4301 41.3923 51.3448L39.4258 51.7093ZM47.813 57.7807C44.9231 57.4493 42.5996 55.6308 41.8011 53.2415L39.9042 53.8755C40.9786 57.09 44.0204 59.3589 47.5851 59.7677L47.813 57.7807ZM58.608 51.3448C58.4069 52.4301 58.3223 52.8734 58.1993 53.2415L60.0961 53.8755C60.2742 53.3426 60.385 52.732 60.5745 51.7093L58.608 51.3448ZM50.0002 59.8337C51.162 59.8337 51.8256 59.8353 52.4152 59.7677L52.1874 57.7807C51.7393 57.8321 51.2147 57.8337 50.0002 57.8337V59.8337ZM58.1993 53.2415C57.4007 55.6308 55.0772 57.4493 52.1874 57.7807L52.4152 59.7677C55.9799 59.3589 59.0217 57.09 60.0961 53.8755L58.1993 53.2415ZM50.0002 33.167C53.2314 33.167 54.6311 33.177 55.6812 33.478L56.2322 31.5553C54.842 31.157 53.0841 31.167 50.0002 31.167V33.167ZM61.9959 44.0398C62.2534 42.6507 62.4545 41.5676 62.5658 40.6899C62.6778 39.8076 62.7091 39.0642 62.5957 38.3579L60.621 38.6748C60.6906 39.1083 60.6836 39.635 60.5817 40.4382C60.4793 41.246 60.2911 42.2635 60.0294 43.6754L61.9959 44.0398ZM55.6812 33.478C58.3613 34.246 60.2392 36.2955 60.621 38.6748L62.5957 38.3579C62.0762 35.1207 59.5645 32.5102 56.2322 31.5553L55.6812 33.478ZM50.0002 31.167C46.9163 31.167 45.1583 31.157 43.7681 31.5553L44.3191 33.478C45.3692 33.177 46.7689 33.167 50.0002 33.167V31.167ZM39.9709 43.6754C39.7093 42.2635 39.5211 41.246 39.4186 40.4382C39.3167 39.635 39.3097 39.1083 39.3793 38.6748L37.4046 38.3579C37.2912 39.0642 37.3226 39.8076 37.4345 40.6899C37.5458 41.5676 37.747 42.6507 38.0044 44.0398L39.9709 43.6754ZM43.7681 31.5553C40.4359 32.5102 37.9241 35.1207 37.4046 38.3579L39.3793 38.6748C39.7612 36.2955 41.6391 34.246 44.3191 33.478L43.7681 31.5553Z" fill="white"/>
<path d="M40 46.0425C41.4832 45.6024 44.933 44.9558 49.868 46.3333C55.1236 47.8004 58.6947 46.9717 60 46.5417" stroke="white" stroke-width="2" stroke-linecap="round" stroke-linejoin="round"/>
</svg>
