<svg width="100" height="101" viewBox="0 0 100 101" fill="none" xmlns="http://www.w3.org/2000/svg">
<rect y="0.5" width="100" height="100" rx="30" fill="#FF9922"/>
<path d="M40.1445 64.8351L39.7464 65.7525L40.1445 64.8351ZM35.6345 60.1104L34.7046 60.4781H34.7046L35.6345 60.1104ZM64.3658 60.1104L65.2958 60.4781L64.3658 60.1104ZM59.8559 64.8351L60.2539 65.7525V65.7525L59.8559 64.8351ZM50.0002 63.833H51.0002H50.0002ZM35.0707 48.0518L34.487 48.8638L35.0707 48.0518ZM47.5002 64.4997C45.5444 64.4997 44.1301 64.4991 43.0118 64.4192C41.9035 64.3399 41.1617 64.1864 40.5425 63.9178L39.7464 65.7525C40.6587 66.1484 41.6532 66.3271 42.8692 66.4141C44.0753 66.5003 45.5731 66.4997 47.5002 66.4997V64.4997ZM34.0002 52.4044C34.0002 54.4252 33.9997 55.9887 34.0816 57.2462C34.164 58.5118 34.3329 59.5382 34.7046 60.4781L36.5644 59.7427C36.3017 59.0782 36.1535 58.2855 36.0773 57.1162C36.0007 55.9388 36.0002 54.4514 36.0002 52.4044H34.0002ZM40.5425 63.9178C38.7527 63.1411 37.3164 61.6446 36.5644 59.7427L34.7046 60.4781C35.6441 62.8545 37.4524 64.757 39.7464 65.7525L40.5425 63.9178ZM64.0002 52.4044C64.0002 54.4514 63.9997 55.9388 63.923 57.1162C63.8468 58.2855 63.6986 59.0782 63.4359 59.7427L65.2958 60.4781C65.6674 59.5382 65.8363 58.5118 65.9188 57.2462C66.0007 55.9887 66.0002 54.4252 66.0002 52.4044H64.0002ZM52.5002 66.4997C54.4273 66.4997 55.925 66.5003 57.1311 66.4141C58.3471 66.3271 59.3416 66.1484 60.2539 65.7525L59.4578 63.9178C58.8387 64.1864 58.0968 64.3399 56.9885 64.4192C55.8703 64.4991 54.4559 64.4997 52.5002 64.4997V66.4997ZM63.4359 59.7427C62.6839 61.6446 61.2476 63.1411 59.4578 63.9178L60.2539 65.7525C62.5479 64.757 64.3562 62.8545 65.2958 60.4781L63.4359 59.7427ZM36.0002 52.4044C36.0002 49.9802 35.8862 49.3259 35.9962 48.0882L34.004 47.9112C33.8849 49.2522 34.0002 50.2301 34.0002 52.4044H36.0002ZM62.5002 41.4997C64.2491 41.4997 65.6668 42.9174 65.6668 44.6663H67.6668C67.6668 41.8129 65.3536 39.4997 62.5002 39.4997V41.4997ZM37.5002 39.4997C34.6467 39.4997 32.3335 41.8129 32.3335 44.6663H34.3335C34.3335 42.9174 35.7513 41.4997 37.5002 41.4997V39.4997ZM49.0002 40.4997L49.0002 63.833H51.0002L51.0002 40.4997H49.0002ZM53.3335 39.4997H50.0002V41.4997H53.3335V39.4997ZM51.0002 40.4997V37.1663H49.0002V40.4997H51.0002ZM55.6668 37.1663C55.6668 38.455 54.6222 39.4997 53.3335 39.4997V41.4997C55.7267 41.4997 57.6668 39.5596 57.6668 37.1663H55.6668ZM53.3335 34.833C54.6222 34.833 55.6668 35.8777 55.6668 37.1663H57.6668C57.6668 34.7731 55.7267 32.833 53.3335 32.833V34.833ZM53.3335 32.833C50.9403 32.833 49.0002 34.7731 49.0002 37.1663H51.0002C51.0002 35.8777 52.0448 34.833 53.3335 34.833V32.833ZM46.6668 41.4997H50.0002V39.4997H46.6668V41.4997ZM42.3335 37.1663C42.3335 39.5596 44.2736 41.4997 46.6668 41.4997V39.4997C45.3782 39.4997 44.3335 38.455 44.3335 37.1663H42.3335ZM46.6668 32.833C44.2736 32.833 42.3335 34.7731 42.3335 37.1663H44.3335C44.3335 35.8777 45.3782 34.833 46.6668 34.833V32.833ZM46.6668 34.833C47.9555 34.833 49.0002 35.8777 49.0002 37.1663H51.0002C51.0002 34.7731 49.0601 32.833 46.6668 32.833V34.833ZM37.5002 41.4997H50.0002V39.4997H37.5002V41.4997ZM50.0002 41.4997H62.5002V39.4997H50.0002V41.4997ZM52.5002 64.4997H50.0002V66.4997H52.5002V64.4997ZM50.0002 64.4997H47.5002V66.4997H50.0002V64.4997ZM49.0002 63.833L49.0002 65.4997L51.0002 65.4997L51.0002 63.833L49.0002 63.833ZM62.5002 47.833H50.0002V49.833H62.5002V47.833ZM50.0002 47.833H37.5002V49.833H50.0002V47.833ZM37.5002 47.833C36.8099 47.833 36.1739 47.6133 35.6544 47.2399L34.487 48.8638C35.3353 49.4736 36.3773 49.833 37.5002 49.833V47.833ZM35.6544 47.2399C34.8525 46.6634 34.3335 45.7255 34.3335 44.6663H32.3335C32.3335 46.3964 33.1848 47.9277 34.487 48.8638L35.6544 47.2399ZM65.6668 44.6663C65.6668 45.7378 65.1356 46.6853 64.3177 47.2599L65.4673 48.8965C66.7954 47.9635 67.6668 46.4167 67.6668 44.6663H65.6668ZM64.3177 47.2599C63.8035 47.6211 63.1781 47.833 62.5002 47.833V49.833C63.6028 49.833 64.6274 49.4865 65.4673 48.8965L64.3177 47.2599ZM66.0002 52.4044C66.0002 50.1608 66.0008 49.2875 65.8888 47.992L63.8962 48.1644C63.9995 49.3586 64.0002 50.1436 64.0002 52.4044H66.0002Z" fill="white"/>
</svg>
