<svg width="100" height="100" viewBox="0 0 100 100" fill="none" xmlns="http://www.w3.org/2000/svg">
<rect width="100" height="100" rx="30" fill="#FF4141"/>
<path d="M54.7665 57.333L53.7864 57.1341L54.7665 57.333ZM45.6665 66.433L45.4676 65.453L45.6665 66.433ZM43.3332 65.6663C37.4421 65.6663 32.6665 60.8907 32.6665 54.9997H30.6665C30.6665 61.9953 36.3376 67.6663 43.3332 67.6663V65.6663ZM32.6665 54.9997C32.6665 49.1086 37.4421 44.333 43.3332 44.333V42.333C36.3376 42.333 30.6665 48.0041 30.6665 54.9997H32.6665ZM43.3332 44.333C49.2242 44.333 53.9998 49.1086 53.9998 54.9997H55.9998C55.9998 48.0041 50.3288 42.333 43.3332 42.333V44.333ZM53.9998 54.9997C53.9998 55.7316 53.9263 56.4453 53.7864 57.1341L55.7465 57.532C55.9127 56.7129 55.9998 55.866 55.9998 54.9997H53.9998ZM53.7864 57.1341C52.9384 61.3118 49.6453 64.6049 45.4676 65.453L45.8654 67.413C50.8303 66.4052 54.7387 62.4968 55.7465 57.532L53.7864 57.1341ZM45.4676 65.453C44.7788 65.5928 44.0651 65.6663 43.3332 65.6663V67.6663C44.1994 67.6663 45.0464 67.5792 45.8654 67.413L45.4676 65.453Z" fill="white"/>
<path d="M68.133 58.667L67.153 58.4681L68.133 58.667ZM60.333 66.467L60.1341 65.4869L60.333 66.467ZM58.333 65.667C53.3624 65.667 49.333 61.6376 49.333 56.667H47.333C47.333 62.7421 52.2579 67.667 58.333 67.667V65.667ZM49.333 56.667C49.333 51.6964 53.3624 47.667 58.333 47.667V45.667C52.2579 45.667 47.333 50.5919 47.333 56.667H49.333ZM58.333 47.667C63.3036 47.667 67.333 51.6964 67.333 56.667H69.333C69.333 50.5919 64.4081 45.667 58.333 45.667V47.667ZM67.333 56.667C67.333 57.2847 67.2709 57.887 67.153 58.4681L69.113 58.8659C69.2574 58.1546 69.333 57.4191 69.333 56.667H67.333ZM67.153 58.4681C66.4375 61.9927 63.6588 64.7715 60.1341 65.4869L60.5319 67.447C64.8438 66.5717 68.2377 63.1778 69.113 58.8659L67.153 58.4681ZM60.1341 65.4869C59.553 65.6049 58.9508 65.667 58.333 65.667V67.667C59.0851 67.667 59.8206 67.5914 60.5319 67.447L60.1341 65.4869Z" fill="white"/>
<path d="M62.4887 35.6763C61.3216 34.5742 59.9702 35.039 59.1333 35.5305C58.6605 35.8082 58.0055 35.8082 57.5327 35.5305C56.6958 35.039 55.3444 34.5742 54.1773 35.6763C51.4068 38.2923 56.1579 43.3333 58.333 43.3333C60.5081 43.3333 65.2592 38.2923 62.4887 35.6763Z" stroke="white" stroke-width="2" stroke-linecap="round"/>
</svg>
