<svg width="100" height="101" viewBox="0 0 100 101" fill="none" xmlns="http://www.w3.org/2000/svg">
<rect y="0.5" width="100" height="100" rx="30" fill="#16B826"/>
<path d="M50 44.25V40.5" stroke="white" stroke-width="1.5" stroke-linecap="round" stroke-linejoin="round"/>
<path d="M49.9998 40.5C57.2221 38 49.9998 31.75 49.9998 31.75C49.9998 31.75 42.4998 38 49.9998 40.5Z" stroke="white" stroke-width="1.5" stroke-linecap="round" stroke-linejoin="round"/>
<path d="M55.3125 50.1875C55.3125 51.5965 54.7528 52.9477 53.7565 53.944C52.7602 54.9403 51.409 55.5 50 55.5C48.591 55.5 47.2398 54.9403 46.2435 53.944C45.2472 52.9477 44.6875 51.5965 44.6875 50.1875" stroke="white" stroke-width="1.5" stroke-linecap="round" stroke-linejoin="round"/>
<path d="M44.6875 50.1875C44.6875 51.5785 44.1419 52.9141 43.168 53.9072C42.194 54.9003 40.8694 55.4719 39.4786 55.499C36.5003 55.556 34.0625 53.0614 34.0625 50.0826V48C34.0625 47.0054 34.4576 46.0516 35.1608 45.3483C35.8641 44.6451 36.8179 44.25 37.8125 44.25H62.1875C63.1821 44.25 64.1359 44.6451 64.8392 45.3483C65.5424 46.0516 65.9375 47.0054 65.9375 48V50.0826C65.9375 53.0614 63.4997 55.556 60.5214 55.499C59.1306 55.4719 57.806 54.9003 56.832 53.9072C55.8581 52.9141 55.3125 51.5785 55.3125 50.1875" stroke="white" stroke-width="1.5" stroke-linecap="round" stroke-linejoin="round"/>
<path d="M41.2392 66.6483L40.9723 67.3493L41.2392 66.6483ZM37.4165 55.5C37.4165 55.0858 37.0807 54.75 36.6665 54.75C36.2523 54.75 35.9165 55.0858 35.9165 55.5H37.4165ZM37.2304 62.9632L36.5466 63.2714H36.5466L37.2304 62.9632ZM64.0832 55.5C64.0832 55.0858 63.7474 54.75 63.3332 54.75C62.919 54.75 62.5832 55.0858 62.5832 55.5H64.0832ZM62.7693 62.9632L63.4531 63.2714L62.7693 62.9632ZM58.7605 66.6483L59.0273 67.3493L58.7605 66.6483ZM47.7776 66.4167C46.0425 66.4167 44.7756 66.4163 43.7716 66.3533C42.7731 66.2907 42.0862 66.1683 41.5061 65.9474L40.9723 67.3493C41.7535 67.6467 42.6101 67.7835 43.6777 67.8504C44.7396 67.917 46.0613 67.9167 47.7776 67.9167V66.4167ZM35.9165 55.5C35.9165 57.0804 35.9163 58.6553 35.9881 59.9923C36.0579 61.2927 36.1993 62.5006 36.5466 63.2714L37.9141 62.6551C37.6976 62.1745 37.5571 61.2371 37.4859 59.9119C37.4167 58.6233 37.4165 57.0923 37.4165 55.5H35.9165ZM41.5061 65.9474C39.8639 65.3222 38.579 64.1307 37.9141 62.6551L36.5466 63.2714C37.3853 65.1327 38.9845 66.5923 40.9723 67.3493L41.5061 65.9474ZM62.5832 55.5C62.5832 57.0923 62.5829 58.6233 62.5138 59.9119C62.4426 61.2371 62.3021 62.1745 62.0855 62.6551L63.4531 63.2714C63.8004 62.5006 63.9418 61.2927 64.0116 59.9923C64.0834 58.6553 64.0832 57.0804 64.0832 55.5H62.5832ZM52.2221 67.9167C53.9383 67.9167 55.2601 67.917 56.322 67.8504C57.3896 67.7835 58.2462 67.6467 59.0273 67.3493L58.4936 65.9474C57.9135 66.1683 57.2266 66.2907 56.2281 66.3533C55.224 66.4163 53.9572 66.4167 52.2221 66.4167V67.9167ZM62.0855 62.6551C61.4206 64.1307 60.1357 65.3222 58.4936 65.9474L59.0273 67.3493C61.0152 66.5923 62.6144 65.1327 63.4531 63.2714L62.0855 62.6551ZM52.2221 66.4167H47.7776V67.9167H52.2221V66.4167Z" fill="white"/>
</svg>
