<svg width="20" height="20" viewBox="0 0 20 20" fill="none" xmlns="http://www.w3.org/2000/svg">
<path d="M13.7835 5.57167L13.7835 5.57167L13.7835 5.57167ZM13.7835 5.57167L13.7835 5.57176L13.7835 5.57167ZM19.4765 9.00004C19.6862 8.79535 19.8345 8.53605 19.9045 8.25148C19.9745 7.9669 19.9635 7.66841 19.8727 7.38977C19.7819 7.11113 19.6149 6.86347 19.3907 6.67479C19.1664 6.48612 18.8939 6.36397 18.6038 6.32216L18.6037 6.32215L13.7764 5.62115L13.7761 5.62111C13.7307 5.61429 13.6876 5.5966 13.6504 5.56955C13.6133 5.54251 13.5833 5.5069 13.5628 5.46576L13.5628 5.46564L11.405 1.09267L11.405 1.09264C11.2756 0.829837 11.0751 0.608528 10.8264 0.453771C10.5777 0.299015 10.2906 0.216992 9.99763 0.216992C9.70468 0.216992 9.41759 0.299015 9.16885 0.453771C8.92012 0.608528 8.71969 0.829837 8.59025 1.09264L8.59024 1.09265L6.43393 5.46693L6.43389 5.46701L6.38904 5.4449C6.37233 5.47895 6.34758 5.50841 6.31692 5.53074C6.28626 5.55307 6.25063 5.56759 6.2131 5.57305L19.4765 9.00004ZM19.4765 9.00004L15.9836 12.4036C15.9835 12.4037 15.9835 12.4037 15.9834 12.4038C15.9501 12.4358 15.925 12.4754 15.9104 12.5192C15.8958 12.5632 15.892 12.61 15.8996 12.6557L15.8996 12.656L16.7239 17.4625C16.7624 17.6876 16.7513 17.9184 16.6915 18.1388C16.6316 18.3591 16.5245 18.5638 16.3776 18.7386C16.2306 18.9133 16.0473 19.054 15.8405 19.1507C15.6336 19.2474 15.4082 19.2979 15.1799 19.2986L15.1161 19.2989L15.1164 19.3001L19.4765 9.00004ZM10.7304 15.7133L10.7303 15.7133C10.5053 15.5942 10.2546 15.532 10.0001 15.532C9.74555 15.532 9.49488 15.594 9.2697 15.7126L9.26967 15.7126L4.95374 17.9818C4.95367 17.9818 4.95359 17.9818 4.95352 17.9819L4.9535 17.9819L4.93023 17.9376C4.89155 17.9582 4.84785 17.9676 4.80412 17.9646C4.76039 17.9616 4.71838 17.9464 4.68287 17.9207C4.64735 17.895 4.61977 17.8598 4.60325 17.8192C4.58673 17.7786 4.58194 17.7342 4.58942 17.691L10.7304 15.7133ZM10.7304 15.7133L15.0466 17.9815C15.0932 18.0079 15.1465 18.02 15.2 18.0163C15.2533 18.0125 15.3043 17.9932 15.3466 17.9607M10.7304 15.7133L15.3466 17.9607M15.3466 17.9607C15.3904 17.9304 15.4244 17.8879 15.4446 17.8386C15.4648 17.789 15.4701 17.7346 15.4599 17.682C15.4598 17.6818 15.4598 17.6816 15.4597 17.6813L14.635 12.8753L15.3466 17.9607ZM18.5794 8.08169L18.5793 8.08177L15.0861 11.4863C14.9042 11.6641 14.7681 11.8834 14.6896 12.1253C14.611 12.3672 14.5923 12.6245 14.635 12.8753L18.5794 8.08169ZM18.5794 8.08169C18.6173 8.04463 18.644 7.99773 18.6566 7.94628M18.5794 8.08169L18.6566 7.94628M18.6566 7.94628C18.6692 7.89483 18.6672 7.84088 18.6507 7.79053M18.6566 7.94628L18.6507 7.79053M18.6507 7.79053C18.6343 7.74017 18.6041 7.69541 18.5636 7.6613M18.6507 7.79053L18.5636 7.6613M18.5636 7.6613C18.5231 7.62719 18.4738 7.60509 18.4214 7.59749M18.5636 7.6613L18.4214 7.59749M18.4214 7.59749L18.4214 7.5975L18.4142 7.64698C18.4574 7.65324 18.498 7.67145 18.5314 7.69956C18.5648 7.72766 18.5896 7.76455 18.6032 7.80604C18.6167 7.84753 18.6184 7.89199 18.608 7.93438L18.4214 7.59749ZM4.54016 17.6825C4.54015 17.6825 4.54015 17.6825 4.54015 17.6825L1.5789 7.59747L1.5859 7.64698L1.5787 7.5975L1.57881 7.59748C1.52629 7.60493 1.47691 7.62697 1.43629 7.66109C1.39564 7.69523 1.3654 7.7401 1.34901 7.79059C1.33262 7.84108 1.33074 7.89515 1.34357 7.94666C1.3564 7.99812 1.38341 8.04495 1.42152 8.08183C1.42156 8.08186 1.42159 8.08189 1.42162 8.08192L4.91398 11.4863C5.09589 11.6641 5.23196 11.8834 5.31053 12.1253C5.38911 12.3672 5.40785 12.6246 5.36513 12.8753L4.54016 17.6825Z" fill="white" stroke="white" stroke-width="0.1"/>
</svg>
