<svg width="20" height="21" viewBox="0 0 20 21" fill="none" xmlns="http://www.w3.org/2000/svg">
<g clip-path="url(#clip0_559_3918)">
<path d="M9.85723 10.1341C11.1808 10.1341 12.3267 9.65938 13.2633 8.72279C14.1996 7.78636 14.6744 6.64058 14.6744 5.31689C14.6744 3.99365 14.1997 2.84771 13.2631 1.91098C12.3266 0.9747 11.1806 0.5 9.85723 0.5C8.53353 0.5 7.38775 0.9747 6.45132 1.91113C5.51489 2.84756 5.04004 3.99349 5.04004 5.31689C5.04004 6.64058 5.51489 7.78652 6.45132 8.72295C7.38806 9.65922 8.53399 10.1341 9.85723 10.1341ZM7.28018 2.73983C7.99871 2.0213 8.84161 1.67203 9.85723 1.67203C10.8727 1.67203 11.7157 2.0213 12.4344 2.73983C13.153 3.45852 13.5024 4.30157 13.5024 5.31689C13.5024 6.33251 13.153 7.1754 12.4344 7.89409C11.7157 8.61278 10.8727 8.96205 9.85723 8.96205C8.84191 8.96205 7.99902 8.61263 7.28018 7.89409C6.56149 7.17555 6.21206 6.33251 6.21206 5.31689C6.21206 4.30157 6.56149 3.45852 7.28018 2.73983Z" fill="white"/>
<path d="M18.2863 15.8794C18.2592 15.4896 18.2046 15.0645 18.1242 14.6156C18.043 14.1634 17.9385 13.7358 17.8134 13.345C17.684 12.9411 17.5084 12.5423 17.2909 12.16C17.0656 11.7633 16.8007 11.4178 16.5034 11.1336C16.1926 10.8362 15.812 10.5971 15.372 10.4227C14.9334 10.2492 14.4475 10.1613 13.9276 10.1613C13.7234 10.1613 13.526 10.2451 13.1447 10.4933C12.91 10.6464 12.6355 10.8234 12.3291 11.0191C12.0671 11.1861 11.7122 11.3425 11.2738 11.4841C10.8461 11.6225 10.4118 11.6927 9.98305 11.6927C9.55458 11.6927 9.12032 11.6225 8.69231 11.4841C8.25438 11.3426 7.89931 11.1862 7.63778 11.0193C7.33428 10.8253 7.05962 10.6483 6.82143 10.4932C6.44042 10.2449 6.24297 10.1611 6.03881 10.1611C5.51879 10.1611 5.03295 10.2492 4.59457 10.4228C4.15481 10.5969 3.7741 10.836 3.46298 11.1337C3.16574 11.4181 2.90085 11.7635 2.67563 12.16C2.45849 12.5423 2.28271 12.941 2.15332 13.3452C2.02835 13.736 1.92383 14.1634 1.84265 14.6156C1.76208 15.0639 1.70761 15.4892 1.6806 15.8798C1.65405 16.2617 1.64062 16.6592 1.64062 17.0608C1.64062 18.1048 1.9725 18.95 2.62695 19.5733C3.27331 20.1884 4.12841 20.5003 5.1686 20.5003H14.7987C15.8386 20.5003 16.6937 20.1884 17.3402 19.5733C17.9948 18.9505 18.3267 18.105 18.3267 17.0607C18.3265 16.6577 18.313 16.2602 18.2863 15.8794ZM16.5321 18.7242C16.105 19.1307 15.538 19.3283 14.7986 19.3283H5.1686C4.42901 19.3283 3.862 19.1307 3.43506 18.7243C3.0162 18.3256 2.81265 17.7814 2.81265 17.0608C2.81265 16.6861 2.82501 16.3161 2.84973 15.9608C2.87384 15.6123 2.92312 15.2295 2.99621 14.8227C3.06839 14.4209 3.16024 14.0439 3.2695 13.7025C3.37433 13.3752 3.5173 13.0511 3.69461 12.7389C3.86383 12.4414 4.05853 12.1861 4.27337 11.9804C4.47433 11.788 4.72762 11.6306 5.02609 11.5124C5.30212 11.4032 5.61233 11.3434 5.94909 11.3344C5.99013 11.3562 6.06322 11.3979 6.18163 11.4751C6.42257 11.6321 6.70028 11.8112 7.00728 12.0073C7.35335 12.2279 7.79921 12.4272 8.3319 12.5992C8.87648 12.7753 9.4319 12.8647 9.9832 12.8647C10.5345 12.8647 11.0901 12.7753 11.6343 12.5993C12.1675 12.4271 12.6132 12.2279 12.9597 12.007C13.2739 11.8062 13.5438 11.6322 13.7848 11.4751C13.9032 11.398 13.9763 11.3562 14.0173 11.3344C14.3542 11.3434 14.6644 11.4032 14.9406 11.5124C15.2389 11.6306 15.4922 11.7882 15.6932 11.9804C15.908 12.186 16.1027 12.4412 16.2719 12.7391C16.4494 13.0511 16.5925 13.3754 16.6972 13.7024C16.8066 14.0442 16.8986 14.4211 16.9706 14.8225C17.0436 15.2301 17.093 15.6131 17.1171 15.961V15.9613C17.142 16.3151 17.1545 16.685 17.1547 17.0608C17.1545 17.7815 16.951 18.3256 16.5321 18.7242Z" fill="white"/>
</g>
<defs>
<clipPath id="clip0_559_3918">
<rect width="20" height="20" fill="white" transform="translate(0 0.5)"/>
</clipPath>
</defs>
</svg>
