<svg width="30" height="30" viewBox="0 0 30 30" fill="none" xmlns="http://www.w3.org/2000/svg">
<g clip-path="url(#clip0_813_908)">
<path d="M28.75 16.2241H1.25C0.559998 16.2241 0 15.6641 0 14.9741C0 14.2841 0.559998 13.7241 1.25 13.7241H28.75C29.44 13.7241 30 14.2841 30 14.9741C30 15.6641 29.44 16.2241 28.75 16.2241Z" fill="#FF9922"/>
<path d="M28.75 6.64111H1.25C0.559998 6.64111 0 6.08112 0 5.39111C0 4.70111 0.559998 4.14111 1.25 4.14111H28.75C29.44 4.14111 30 4.70111 30 5.39111C30 6.08112 29.44 6.64111 28.75 6.64111Z" fill="#FF9922"/>
<path d="M28.75 25.8076H1.25C0.559998 25.8076 0 25.2476 0 24.5576C0 23.8676 0.559998 23.3076 1.25 23.3076H28.75C29.44 23.3076 30 23.8676 30 24.5576C30 25.2476 29.44 25.8076 28.75 25.8076Z" fill="#FF9922"/>
</g>
<defs>
<clipPath id="clip0_813_908">
<rect width="30" height="30" fill="white"/>
</clipPath>
</defs>
</svg>
