<svg width="16" height="16" viewBox="0 0 16 16" fill="none" xmlns="http://www.w3.org/2000/svg">
<path d="M14.9099 1.76821L1.94623 14.7318C1.62096 15.0571 1.09299 15.0571 0.767722 14.7318C0.442452 14.4066 0.442452 13.8786 0.767722 13.5533L13.7313 0.589699C14.0566 0.264429 14.5846 0.264428 14.9099 0.589698C15.2351 0.914969 15.2351 1.44294 14.9099 1.76821Z" fill="#FF9922"/>
<path d="M13.5528 14.8735L0.589211 1.90986C0.263941 1.58459 0.263941 1.05662 0.589211 0.731346C0.914481 0.406075 1.44245 0.406075 1.76772 0.731345L14.7313 13.695C15.0566 14.0202 15.0566 14.5482 14.7313 14.8735C14.4061 15.1988 13.8781 15.1988 13.5528 14.8735Z" fill="#FF9922"/>
</svg>
