<svg width="54" height="55" viewBox="0 0 54 55" fill="none" xmlns="http://www.w3.org/2000/svg">
<rect y="0.5" width="54" height="54" rx="27" fill="#FEF7E2"/>
<path d="M34.7347 29.2658L31.885 27.5L34.7347 25.7342C35.0311 25.5533 35.2893 25.3142 35.494 25.0306C35.6987 24.7471 35.846 24.4249 35.9272 24.0828C36.0083 23.7407 36.0218 23.3855 35.9668 23.0381C35.9118 22.6906 35.7894 22.3578 35.6068 22.059C35.4241 21.7602 35.1849 21.5015 34.9031 21.2979C34.6212 21.0942 34.3024 20.9498 33.9651 20.8731C33.6279 20.7963 33.279 20.7887 32.9389 20.8507C32.5987 20.9127 32.2741 21.043 31.984 21.2342L29.4165 22.9083V20C29.4165 19.337 29.1579 18.7011 28.6976 18.2322C28.2373 17.7634 27.6129 17.5 26.962 17.5C26.311 17.5 25.6867 17.7634 25.2263 18.2322C24.766 18.7011 24.5074 19.337 24.5074 20V22.99L21.94 21.2342C21.3545 20.877 20.6546 20.7683 19.9912 20.9316C19.3278 21.095 18.7539 21.5171 18.3932 22.1072C18.0325 22.6974 17.9138 23.4082 18.0627 24.0866C18.2116 24.765 18.6161 25.3567 19.1892 25.7342L22.039 27.5L19.1892 29.2658C18.6161 29.6433 18.2116 30.235 18.0627 30.9134C17.9138 31.5918 18.0325 32.3026 18.3932 32.8927C18.7539 33.4829 19.3278 33.905 19.9912 34.0684C20.6546 34.2317 21.3545 34.123 21.94 33.7658L24.5074 32.0675V35C24.5074 35.663 24.766 36.2989 25.2263 36.7678C25.6867 37.2366 26.311 37.5 26.962 37.5C27.6129 37.5 28.2373 37.2366 28.6976 36.7678C29.1579 36.2989 29.4165 35.663 29.4165 35V32.0167L31.984 33.7667C32.5695 34.1239 33.2693 34.2325 33.9327 34.0692C34.5961 33.9059 35.17 33.4837 35.5307 32.8936C35.8914 32.3035 36.0101 31.5927 35.8612 30.9143C35.7123 30.2359 35.3078 29.6442 34.7347 29.2667V29.2658Z" stroke="#333333" stroke-width="1.5" stroke-linejoin="round"/>
</svg>
