<svg width="54" height="54" viewBox="0 0 54 54" fill="none" xmlns="http://www.w3.org/2000/svg">
<rect width="54" height="54" rx="27" fill="#FEF7E2"/>
<path d="M26.6692 33.9506L27.1051 34.5609L26.6692 33.9506ZM26.7222 33.9128L26.2902 33.2997L26.7222 33.9128ZM29.5703 33.0001L29.5751 33.7501L29.5703 33.0001ZM22.3959 34.5103L23.0923 34.7888L22.3959 34.5103ZM24.0585 35.8154L23.6226 35.2051H23.6226L24.0585 35.8154ZM36.798 29.4069L37.5177 29.6179L36.798 29.4069ZM33.4069 32.798L33.6179 33.5177L33.4069 32.798ZM19.73 17.545L20.0705 18.2132L19.73 17.545ZM17.545 19.73L18.2132 20.0705L17.545 19.73ZM34.27 17.545L33.9295 18.2132L34.27 17.545ZM36.455 19.73L35.7868 20.0705L36.455 19.73ZM27.8003 21.573L28.2021 22.2063L27.8003 21.573ZM31.1557 21.7304L31.6912 21.2052H31.6912L31.1557 21.7304ZM22.8443 21.7304L23.3798 22.2555L22.8443 21.7304ZM26.1996 21.573L26.6014 20.9396L26.1996 21.573ZM29 16.25H25V17.75H29V16.25ZM16.25 25V29.2283H17.75V25H16.25ZM37.75 26.1842V25H36.25V26.1842H37.75ZM20.7717 33.75H21.3734V32.25H20.7717V33.75ZM24.4944 36.4257L27.1051 34.5609L26.2333 33.3403L23.6226 35.2051L24.4944 36.4257ZM29.6354 33.75H30.1842V32.25H29.6354V33.75ZM27.1051 34.5609C27.1325 34.5413 27.1436 34.5334 27.1543 34.5259L26.2902 33.2997C26.2747 33.3107 26.2592 33.3218 26.2333 33.3403L27.1051 34.5609ZM29.6354 32.25C29.6036 32.25 29.5845 32.25 29.5655 32.2501L29.5751 33.7501C29.5882 33.75 29.6018 33.75 29.6354 33.75V32.25ZM27.1543 34.5259C27.8632 34.0264 28.7079 33.7556 29.5751 33.7501L29.5655 32.2501C28.3922 32.2576 27.2493 32.6239 26.2902 33.2997L27.1543 34.5259ZM21.3734 33.75C21.6219 33.75 21.7918 34.001 21.6995 34.2317L23.0923 34.7888C23.5787 33.5728 22.6831 32.25 21.3734 32.25V33.75ZM21.6995 34.2317C21.0129 35.9484 22.9899 37.5003 24.4944 36.4257L23.6226 35.2051C23.3371 35.409 22.962 35.1145 23.0923 34.7888L21.6995 34.2317ZM36.25 26.1842C36.25 27.9261 36.2424 28.6363 36.0783 29.1958L37.5177 29.6179C37.7576 28.7996 37.75 27.8206 37.75 26.1842H36.25ZM30.1842 33.75C31.8206 33.75 32.7996 33.7576 33.6179 33.5177L33.1958 32.0783C32.6363 32.2424 31.9261 32.25 30.1842 32.25V33.75ZM36.0783 29.1958C35.671 30.5848 34.5848 31.671 33.1958 32.0783L33.6179 33.5177C35.4971 32.9667 36.9667 31.4971 37.5177 29.6179L36.0783 29.1958ZM16.25 29.2283C16.25 31.7256 18.2744 33.75 20.7717 33.75V32.25C19.1028 32.25 17.75 30.8972 17.75 29.2283H16.25ZM25 16.25C23.6122 16.25 22.5263 16.2494 21.6549 16.3206C20.7748 16.3925 20.0477 16.5414 19.3896 16.8767L20.0705 18.2132C20.482 18.0036 20.9897 17.88 21.7771 17.8156C22.5732 17.7506 23.5875 17.75 25 17.75V16.25ZM17.75 25C17.75 23.5875 17.7506 22.5732 17.8156 21.7771C17.88 20.9897 18.0036 20.482 18.2132 20.0705L16.8767 19.3896C16.5414 20.0477 16.3925 20.7748 16.3206 21.6549C16.2494 22.5263 16.25 23.6122 16.25 25H17.75ZM19.3896 16.8767C18.3076 17.428 17.428 18.3076 16.8767 19.3896L18.2132 20.0705C18.6207 19.2709 19.2709 18.6207 20.0705 18.2132L19.3896 16.8767ZM29 17.75C30.4125 17.75 31.4268 17.7506 32.2229 17.8156C33.0103 17.88 33.518 18.0036 33.9295 18.2132L34.6104 16.8767C33.9523 16.5414 33.2252 16.3925 32.3451 16.3206C31.4737 16.2494 30.3878 16.25 29 16.25V17.75ZM37.75 25C37.75 23.6122 37.7506 22.5263 37.6794 21.6549C37.6075 20.7748 37.4586 20.0477 37.1233 19.3896L35.7868 20.0705C35.9964 20.482 36.12 20.9897 36.1844 21.7771C36.2494 22.5732 36.25 23.5875 36.25 25H37.75ZM33.9295 18.2132C34.7291 18.6207 35.3793 19.2709 35.7868 20.0705L37.1233 19.3896C36.572 18.3076 35.6924 17.428 34.6104 16.8767L33.9295 18.2132ZM28.2021 22.2063C28.5691 21.9735 28.9942 21.7846 29.4089 21.7543C29.7861 21.7267 30.1972 21.824 30.6202 22.2555L31.6912 21.2052C30.9472 20.4465 30.099 20.1997 29.2994 20.2583C28.5374 20.3141 27.8684 20.6416 27.3986 20.9396L28.2021 22.2063ZM30.6202 22.2555C31.1308 22.7762 31.3067 23.4132 31.2347 24.1406C31.1605 24.891 30.8194 25.7218 30.3035 26.5162C29.7906 27.3058 29.1351 28.0126 28.4941 28.5147C27.8204 29.0424 27.2841 29.25 27 29.25V30.75C27.8034 30.75 28.6767 30.2771 29.419 29.6956C30.194 29.0886 30.9609 28.2578 31.5614 27.3332C32.1589 26.4133 32.6221 25.3533 32.7274 24.2883C32.8351 23.2002 32.5659 22.0972 31.6912 21.2052L30.6202 22.2555ZM27 29.25C26.7159 29.25 26.1796 29.0424 25.5059 28.5147C24.8649 28.0126 24.2094 27.3058 23.6965 26.5162C23.1806 25.7218 22.8395 24.891 22.7653 24.1406C22.6933 23.4132 22.8692 22.7762 23.3798 22.2555L22.3088 21.2052C21.4341 22.0972 21.1649 23.2002 21.2726 24.2883C21.3779 25.3533 21.8411 26.4133 22.4386 27.3332C23.0391 28.2578 23.806 29.0886 24.581 29.6956C25.3233 30.2771 26.1966 30.75 27 30.75V29.25ZM23.3798 22.2555C23.8028 21.824 24.2139 21.7267 24.591 21.7543C25.0057 21.7846 25.4309 21.9735 25.7979 22.2063L26.6014 20.9396C26.1316 20.6416 25.4626 20.3141 24.7006 20.2583C23.901 20.1998 23.0528 20.4465 22.3088 21.2052L23.3798 22.2555ZM27.3986 20.9396C27.171 21.084 26.829 21.084 26.6014 20.9396L25.7979 22.2063C26.516 22.6618 27.484 22.6618 28.2021 22.2063L27.3986 20.9396Z" fill="#333333"/>
</svg>
