<svg width="54" height="55" viewBox="0 0 54 55" fill="none" xmlns="http://www.w3.org/2000/svg">
<rect y="0.5" width="54" height="54" rx="27" fill="#FEF7E2"/>
<path d="M28.9997 23.386C29.3224 24.3387 30.2479 24.9837 31.2922 24.9837M20.0975 22.5147C21.6696 22.5147 23.0628 21.5025 23.5486 20.0074C24.6349 16.6642 29.3645 16.6642 30.4508 20.0074C30.9366 21.5025 32.3298 22.5147 33.9019 22.5147C37.417 22.5147 38.8786 27.0129 36.0347 29.079C34.7629 30.0031 34.2308 31.6409 34.7165 33.136C35.8028 36.4792 31.9764 39.2592 29.1326 37.193C27.8608 36.269 26.1386 36.269 24.8668 37.193C22.023 39.2592 18.1966 36.4792 19.2829 33.136C19.7686 31.6409 19.2365 30.0031 17.9647 29.079C15.1208 27.0129 16.5824 22.5147 20.0975 22.5147Z" stroke="#333333" stroke-width="1.5" stroke-linecap="round"/>
</svg>
