<svg width="54" height="55" viewBox="0 0 54 55" fill="none" xmlns="http://www.w3.org/2000/svg">
<rect y="0.5" width="54" height="54" rx="27" fill="#FEF7E2"/>
<g clip-path="url(#clip0_552_8074)">
<path d="M31 21.5C30.4477 21.5 30 21.0523 30 20.5V17.5C30 16.9477 29.5523 16.5 29 16.5H25C24.4477 16.5 24 16.9477 24 17.5V20.5C24 21.0523 23.5523 21.5 23 21.5H20C19.4477 21.5 19 21.9477 19 22.5V26.5C19 27.0523 19.4477 27.5 20 27.5H23C23.5523 27.5 24 27.9477 24 28.5L24 37.5C24 38.0523 24.4477 38.5 25 38.5H29C29.5523 38.5 30 38.0523 30 37.5L30 28.5C30 27.9477 30.4477 27.5 31 27.5H34C34.5523 27.5 35 27.0523 35 26.5V22.5C35 21.9477 34.5523 21.5 34 21.5H31Z" stroke="#333333" stroke-width="1.5"/>
</g>
<defs>
<clipPath id="clip0_552_8074">
<rect width="24" height="24" fill="white" transform="translate(15 15.5)"/>
</clipPath>
</defs>
</svg>
