<svg width="54" height="55" viewBox="0 0 54 55" fill="none" xmlns="http://www.w3.org/2000/svg">
<rect y="0.5" width="54" height="54" rx="27" fill="#FEF7E2"/>
<path d="M27 19C22.3056 19 18.5 22.8056 18.5 27.5C18.5 32.1944 22.3056 36 27 36C31.4176 36 35.0476 32.6303 35.4608 28.3207C35.4801 28.1202 35.377 27.9277 35.1995 27.8324C35.0219 27.7372 34.8045 27.7578 34.6481 27.8848C33.7884 28.5824 32.6937 29 31.5 29C28.7386 29 26.5 26.7614 26.5 24C26.5 22.3599 27.2892 20.9042 28.5106 19.9917C28.6721 19.871 28.7453 19.6652 28.6963 19.4696C28.6473 19.2741 28.4857 19.1271 28.2864 19.0968C27.8666 19.033 27.437 19 27 19Z" stroke="#333333" stroke-width="1.5"/>
</svg>
