<svg width="48" height="48" viewBox="0 0 48 48" fill="none" xmlns="http://www.w3.org/2000/svg">
<rect width="48" height="48" rx="24" fill="#FF9922"/>
<path d="M14.7822 18.9384L14.8995 19.6792H14.8995L14.7822 18.9384ZM18.9384 14.7822L19.6792 14.8995V14.8995L18.9384 14.7822ZM28.9389 31.0451L28.4981 30.4383L28.9389 31.0451ZM30.0451 29.9389L29.4383 29.4981L30.0451 29.9389ZM13.9549 29.9389L14.5617 29.4981L13.9549 29.9389ZM15.0611 31.0451L15.5019 30.4383L15.0611 31.0451ZM15.0611 13.9549L14.6202 13.3482L15.0611 13.9549ZM13.9549 15.0611L13.3482 14.6202L13.9549 15.0611ZM28.9389 13.9549L28.4981 14.5617L28.9389 13.9549ZM30.0451 15.0611L29.4383 15.5019L30.0451 15.0611ZM19 13.0289L18.9743 12.2794L19 13.0289ZM13.0289 19L12.2794 18.9743L13.0289 19ZM14.8995 19.6792C17.3599 19.2895 19.2895 17.3599 19.6792 14.8995L18.1977 14.6648C17.9096 16.4834 16.4834 17.9096 14.6648 18.1977L14.8995 19.6792ZM12.25 22V23H13.75V22H12.25ZM31.75 23V22H30.25V23H31.75ZM22 32.75C23.8582 32.75 25.312 32.751 26.4635 32.6263C27.6291 32.5 28.5734 32.2377 29.3798 31.6518L28.4981 30.4383C27.9901 30.8074 27.3399 31.0225 26.302 31.135C25.25 31.249 23.8916 31.25 22 31.25V32.75ZM30.25 23C30.25 24.8916 30.249 26.25 30.135 27.302C30.0225 28.3399 29.8074 28.9901 29.4383 29.4981L30.6518 30.3798C31.2377 29.5734 31.5 28.6291 31.6263 27.4635C31.751 26.312 31.75 24.8582 31.75 23H30.25ZM29.3798 31.6518C29.8679 31.2972 30.2972 30.8679 30.6518 30.3798L29.4383 29.4981C29.1762 29.8589 28.8589 30.1762 28.4981 30.4383L29.3798 31.6518ZM12.25 23C12.25 24.8582 12.249 26.312 12.3737 27.4635C12.5 28.6291 12.7623 29.5734 13.3482 30.3798L14.5617 29.4981C14.1926 28.9901 13.9775 28.3399 13.865 27.302C13.751 26.25 13.75 24.8916 13.75 23H12.25ZM22 31.25C20.1084 31.25 18.75 31.249 17.698 31.135C16.6601 31.0225 16.0099 30.8074 15.5019 30.4383L14.6202 31.6518C15.4266 32.2377 16.3709 32.5 17.5365 32.6263C18.688 32.751 20.1418 32.75 22 32.75V31.25ZM13.3482 30.3798C13.7028 30.8679 14.1321 31.2972 14.6202 31.6518L15.5019 30.4383C15.1411 30.1762 14.8238 29.8589 14.5617 29.4981L13.3482 30.3798ZM14.6202 13.3482C14.1321 13.7028 13.7028 14.1321 13.3482 14.6202L14.5617 15.5019C14.8238 15.1411 15.1411 14.8238 15.5019 14.5617L14.6202 13.3482ZM22 13.75C23.8916 13.75 25.25 13.751 26.302 13.865C27.3399 13.9775 27.9901 14.1926 28.4981 14.5617L29.3798 13.3482C28.5734 12.7623 27.6291 12.5 26.4635 12.3737C25.312 12.249 23.8582 12.25 22 12.25V13.75ZM31.75 22C31.75 20.1418 31.751 18.688 31.6263 17.5365C31.5 16.3709 31.2377 15.4266 30.6518 14.6202L29.4383 15.5019C29.8074 16.0099 30.0225 16.6601 30.135 17.698C30.249 18.75 30.25 20.1084 30.25 22H31.75ZM28.4981 14.5617C28.8589 14.8238 29.1762 15.1411 29.4383 15.5019L30.6518 14.6202C30.2972 14.1321 29.8679 13.7028 29.3798 13.3482L28.4981 14.5617ZM22 12.25C20.8352 12.25 19.8342 12.2499 18.9743 12.2794L19.0257 13.7785C19.8544 13.7501 20.8269 13.75 22 13.75V12.25ZM18.9743 12.2794C17.1009 12.3436 15.7239 12.5463 14.6202 13.3482L15.5019 14.5617C16.2075 14.0491 17.1708 13.842 19.0257 13.7785L18.9743 12.2794ZM18.25 13.0289C18.25 13.9662 18.2471 14.353 18.1977 14.6648L19.6792 14.8995C19.7516 14.4421 19.75 13.9112 19.75 13.0289L18.25 13.0289ZM13.75 22C13.75 20.8269 13.7501 19.8544 13.7785 19.0257L12.2794 18.9743C12.2499 19.8342 12.25 20.8352 12.25 22H13.75ZM13.7785 19.0257C13.842 17.1708 14.0491 16.2075 14.5617 15.5019L13.3482 14.6202C12.5463 15.7239 12.3436 17.1009 12.2794 18.9743L13.7785 19.0257ZM13.0289 19.75C13.9112 19.75 14.4421 19.7516 14.8995 19.6792L14.6648 18.1977C14.353 18.2471 13.9662 18.25 13.0289 18.25L13.0289 19.75Z" fill="white"/>
<path d="M31.9389 34.0455L31.498 33.4388L31.9389 34.0455ZM33.045 32.9394L32.4383 32.4985L33.045 32.9394ZM34.75 26.0005V24.0005H33.25V26.0005H34.75ZM25 35.7504C26.8581 35.7504 28.312 35.7515 29.4635 35.6267C30.629 35.5004 31.5734 35.2381 32.3797 34.6523L31.498 33.4388C30.99 33.8079 30.3398 34.023 29.3019 34.1354C28.25 34.2494 26.8915 34.2504 25 34.2504V35.7504ZM33.25 26.0005C33.25 27.892 33.2489 29.2505 33.135 30.3024C33.0225 31.3403 32.8074 31.9905 32.4383 32.4985L33.6518 33.3802C34.2376 32.5739 34.5 31.6295 34.6262 30.464C34.751 29.3125 34.75 27.8586 34.75 26.0005H33.25ZM32.3797 34.6523C32.8679 34.2976 33.2972 33.8684 33.6518 33.3802L32.4383 32.4985C32.1761 32.8593 31.8589 33.1766 31.498 33.4388L32.3797 34.6523ZM25 34.2504C23.1084 34.2504 21.75 34.2494 20.698 34.1354C19.6601 34.023 19.0099 33.8079 18.5019 33.4388L17.6202 34.6523C18.4265 35.2381 19.3709 35.5004 20.5364 35.6267C21.6879 35.7515 23.1418 35.7504 25 35.7504V34.2504ZM34.75 24.0005C34.75 22.1423 34.751 20.6884 34.6262 19.5369C34.5 18.3714 34.2376 17.427 33.6518 16.6207L32.4383 17.5024C32.8074 18.0104 33.0225 18.6606 33.135 19.6985C33.2489 20.7504 33.25 22.1089 33.25 24.0005H34.75Z" fill="white"/>
</svg>
